<svg width="547" height="1026" viewBox="0 0 547 1026" fill="none" xmlns="http://www.w3.org/2000/svg">
<rect width="547" height="1026" fill="none"/>
<path d="M304.409 196.878C301.945 197.204 300.212 199.466 300.539 201.93C300.866 204.394 303.127 206.126 305.591 205.8L304.409 196.878ZM427.093 311.071C428.326 313.229 431.075 313.979 433.233 312.746L468.396 292.652C470.554 291.419 471.304 288.67 470.071 286.512C468.838 284.355 466.089 283.605 463.931 284.838L432.674 302.699L414.813 271.442C413.58 269.284 410.832 268.535 408.674 269.768C406.516 271.001 405.766 273.75 406.999 275.907L427.093 311.071ZM305.591 205.8C308.471 205.418 311.289 205.086 314.047 204.802L313.125 195.85C310.278 196.143 307.373 196.485 304.409 196.878L305.591 205.8ZM330.865 203.627C336.763 203.423 342.335 203.468 347.596 203.738L348.058 194.75C342.522 194.466 336.693 194.42 330.555 194.632L330.865 203.627ZM364.156 205.47C369.984 206.424 375.332 207.702 380.233 209.258L382.957 200.681C377.61 198.982 371.835 197.607 365.609 196.588L364.156 205.47ZM395.225 215.556C400.25 218.276 404.623 221.372 408.415 224.76L414.411 218.049C410.082 214.181 405.131 210.684 399.509 207.641L395.225 215.556ZM418.865 236.821C421.858 241.336 424.211 246.156 425.996 251.175L434.476 248.158C432.462 242.5 429.792 237.015 426.366 231.848L418.865 236.821ZM429.755 266.929C430.48 272.338 430.692 277.828 430.47 283.275L439.463 283.64C439.704 277.719 439.475 271.704 438.675 265.733L429.755 266.929ZM428.534 299.628C427.999 302.364 427.37 305.046 426.659 307.655L435.341 310.023C436.11 307.204 436.79 304.307 437.367 301.353L428.534 299.628Z" fill="url(#paint0_linear_8_40)"/>
<path d="M292.321 348.255C294.778 348.63 297.074 346.942 297.449 344.485C297.823 342.029 296.135 339.733 293.679 339.358L292.321 348.255ZM92.3213 444.399C93.7527 446.43 96.5601 446.917 98.5918 445.486L131.7 422.159C133.732 420.728 134.218 417.921 132.787 415.889C131.355 413.857 128.548 413.371 126.516 414.802L97.0869 435.536L76.3526 406.107C74.9211 404.075 72.1138 403.589 70.0821 405.02C68.0504 406.452 67.5638 409.259 68.9952 411.291L92.3213 444.399ZM100.434 442.575C100.863 440.102 101.463 437.398 102.262 434.516L93.5881 432.114C92.7143 435.269 92.0474 438.262 91.5661 441.038L100.434 442.575ZM108.043 418.788C110.234 414.009 112.908 409.058 116.134 404.085L108.584 399.187C105.11 404.542 102.227 409.879 99.8618 415.038L108.043 418.788ZM126.274 390.671C129.82 386.618 133.787 382.643 138.216 378.831L132.344 372.01C127.585 376.106 123.317 380.382 119.5 384.744L126.274 390.671ZM151.698 368.753C156.233 365.819 161.135 363.059 166.429 360.526L162.544 352.407C156.904 355.106 151.667 358.054 146.809 361.197L151.698 368.753ZM182.111 354.137C187.248 352.38 192.689 350.822 198.45 349.499L196.436 340.728C190.377 342.119 184.636 343.761 179.198 345.621L182.111 354.137ZM215.221 346.464C220.662 345.727 226.349 345.185 232.291 344.86L231.799 335.873C225.625 336.212 219.7 336.776 214.015 337.545L215.221 346.464ZM249.393 344.527C254.938 344.606 260.681 344.86 266.628 345.306L267.3 336.331C261.178 335.872 255.253 335.609 249.521 335.528L249.393 344.527ZM283.702 347.046C286.533 347.408 289.406 347.811 292.321 348.255L293.679 339.358C290.693 338.903 287.748 338.49 284.844 338.118L283.702 347.046Z" fill="url(#paint1_linear_8_40)"/>
<path d="M100.889 704.994C101.438 702.57 99.9177 700.16 97.4937 699.611C95.0698 699.062 92.6599 700.582 92.1111 703.006L100.889 704.994ZM251.734 894.025C252.576 891.687 251.363 889.108 249.025 888.266L210.921 874.542C208.583 873.7 206.005 874.913 205.163 877.251C204.32 879.589 205.533 882.167 207.871 883.01L241.741 895.209L229.542 929.079C228.7 931.417 229.913 933.995 232.251 934.838C234.589 935.68 237.167 934.467 238.01 932.129L251.734 894.025ZM92.1111 703.006C91.4355 705.99 90.7982 708.934 90.1984 711.837L99.0123 713.658C99.6004 710.811 100.226 707.923 100.889 704.994L92.1111 703.006ZM86.9667 729.254C85.977 735.303 85.1624 741.163 84.515 746.838L93.457 747.858C94.0872 742.334 94.8813 736.619 95.8486 730.708L86.9667 729.254ZM82.9925 764.578C82.6457 770.766 82.5162 776.712 82.5912 782.422L91.5904 782.303C91.5183 776.811 91.6426 771.074 91.9784 765.082L82.9925 764.578ZM83.5482 800.257C84.1557 806.514 85.0387 812.445 86.1757 818.066L94.997 816.281C93.9244 810.979 93.0854 805.354 92.506 799.387L83.5482 800.257ZM90.8424 835.563C92.8786 841.591 95.2555 847.177 97.9328 852.343L105.924 848.202C103.465 843.458 101.265 838.295 99.3691 832.683L90.8424 835.563ZM107.725 867.799C111.584 872.824 115.784 877.291 120.252 881.242L126.215 874.501C122.173 870.927 118.368 866.881 114.864 862.318L107.725 867.799ZM135.129 892.037C140.473 895.187 146.025 897.781 151.686 899.883L154.819 891.445C149.623 889.516 144.556 887.146 139.7 884.283L135.129 892.037ZM169.237 904.841C175.254 906.052 181.291 906.802 187.244 907.16L187.785 898.176C182.217 897.841 176.594 897.141 171.012 896.018L169.237 904.841ZM205.364 907.093C211.611 906.677 217.644 905.873 223.33 904.766L221.61 895.932C216.291 896.967 210.632 897.722 204.767 898.113L205.364 907.093ZM240.922 900.036C243.952 898.965 246.796 897.804 249.415 896.572L245.585 888.428C243.261 889.521 240.697 890.57 237.923 891.551L240.922 900.036Z" fill="url(#paint2_linear_8_40)"/>
<path fill-rule="evenodd" clip-rule="evenodd" d="M451.129 878.421C435.573 877.639 420.668 884.625 411.449 897.019C402.159 909.507 399.748 926.383 405.152 941.099C408.462 950.113 414.745 958.049 422.876 963.486C435.205 971.728 451.09 973.61 465.076 968.484C472.61 965.723 479.729 960.638 484.83 954.374C492.243 945.272 495.948 933.701 495.232 921.893C494.643 912.182 491.179 903.251 485.053 895.648C478.064 886.976 468.754 881.406 457.582 879.215C454.529 878.616 454.201 878.576 451.129 878.421ZM450.436 897.067C449.931 897.251 449.207 897.707 448.826 898.081L448.134 898.76L446.554 911.188L444.974 923.616L445.391 924.67C445.745 925.566 446.721 926.673 451.901 932.052C455.252 935.533 458.266 938.589 458.599 938.845C459.988 939.912 462.43 939.584 463.641 938.167C464.177 937.54 464.306 937.21 464.436 936.131C464.549 935.197 464.507 934.652 464.282 934.146C464.005 933.522 462.204 931.559 455.213 924.258L453.15 922.105L454.482 911.134C455.721 900.922 455.795 900.106 455.549 899.335C455.235 898.351 454.849 897.879 453.927 897.354C452.931 896.787 451.522 896.671 450.436 897.067Z" fill="#8D8D8D"/>
<path d="M450.436 897.067C449.931 897.251 449.207 897.707 448.826 898.081L448.134 898.76L446.554 911.188L444.974 923.616L445.391 924.67C445.745 925.566 446.721 926.673 451.901 932.052C455.252 935.533 458.266 938.589 458.599 938.845C459.988 939.912 462.43 939.584 463.641 938.167C464.177 937.54 464.306 937.21 464.436 936.131C464.549 935.197 464.507 934.652 464.282 934.146C464.005 933.522 462.204 931.559 455.213 924.258L453.15 922.105L454.482 911.134C455.721 900.922 455.795 900.106 455.549 899.335C455.235 898.351 454.849 897.879 453.927 897.354C452.931 896.787 451.522 896.671 450.436 897.067Z" fill="white"/>
<path fill-rule="evenodd" clip-rule="evenodd" d="M300.843 688.289C305.916 671.199 316.353 661.438 330.539 660.515C330.891 660.492 333.822 660.83 337.052 661.265C343.562 662.141 344.893 662.516 350.039 664.919C362.521 670.747 375.253 681.509 389.132 697.962L392.071 701.446L395.764 698.777C409.114 689.13 419.941 683.118 431.001 679.209C437.462 676.926 441.706 675.919 447.392 675.32C450.223 675.021 459.764 676.023 462.35 676.89C466.05 678.13 469.28 679.942 472.146 682.386C474.244 684.175 477.443 688.242 478.932 691.013C484.972 702.258 485.434 719.398 480.26 740.244C478.733 746.396 476 755.163 473.989 760.362C473.591 761.391 473.245 762.402 473.22 762.608C473.189 762.855 473.768 763.242 474.922 763.745C508.946 778.589 528.32 796.883 529.823 815.588C529.91 816.672 529.93 817.989 529.868 818.515C529.784 819.225 529.829 819.381 530.044 819.122C530.242 818.883 530.25 819.457 530.068 820.965C529.922 822.169 529.681 823.211 529.533 823.28C529.385 823.349 529.21 823.823 529.144 824.334C528.978 825.626 527.715 829.124 526.739 830.993C523.987 836.267 520.463 840.285 514.659 844.766C503.797 853.153 487.424 859.41 466.059 863.339C462.673 863.961 460.819 864.42 460.741 864.654C460.675 864.851 460.763 866.167 460.938 867.577C460.957 867.738 460.977 867.901 460.997 868.066C460.59 867.978 460.182 867.894 459.772 867.814C455.956 867.065 455.546 867.015 451.706 866.822C450.349 866.753 448.995 866.733 447.648 866.758C447.516 866.209 447.374 866.093 447.165 866.035C446.893 865.961 446.611 865.947 446.537 866.005C446.324 866.173 436.579 866.898 431.554 867.121C424.858 867.417 418.747 867.509 412.847 867.404C409.989 867.353 407.42 867.33 407.138 867.353C406.856 867.375 406.233 867.836 405.755 868.376C399.487 875.458 385.761 888.929 379.351 894.288C378.294 895.173 377.588 895.946 377.641 896.162C377.772 896.69 383.1 902.95 386.785 906.904C388.588 908.838 390.336 910.634 392.051 912.311C390.871 917.728 390.447 923.312 390.806 928.866C383.791 923.066 376.709 915.881 369.86 907.55C368.492 905.886 367.268 904.512 367.139 904.496C367.01 904.481 365.486 905.523 363.751 906.813C350.666 916.542 336.738 924.086 325.115 927.738C321.376 928.914 315.367 930.171 311.998 930.484C308.396 930.819 300.317 930.034 297.232 929.051C291.443 927.205 286.872 923.989 283.159 919.148C279.863 914.851 277.737 909.976 276.52 903.924C275.064 896.682 274.98 890.876 276.187 880.924C277.544 869.74 279.927 860.158 284.51 847.464C285.399 844.998 286 843 285.889 842.871C285.782 842.746 283.96 841.879 281.84 840.945C268.274 834.963 256.156 827.622 247.395 820.079C237.835 811.846 231.535 802.391 229.867 793.772C227.561 781.855 232.398 770.62 243.679 761.688C254.048 753.479 269.947 747.092 289.912 743.116C292.992 742.502 296.194 741.897 297.029 741.769C297.617 741.679 297.999 741.701 298.221 741.523C298.672 741.162 298.466 739.978 297.994 735.368C296.148 717.334 297.153 700.717 300.843 688.289ZM322.404 676.996C324.819 675.108 327.051 674.172 329.981 673.818C332.58 673.504 336.788 674.021 339.91 675.038C349.955 678.31 362.132 687.438 374.127 700.686C377.043 703.906 381.643 709.453 381.632 709.735C381.625 709.883 380.751 710.754 379.688 711.67C373.367 717.115 364.929 725.258 357.956 732.644C355.576 735.165 353.338 737.51 352.984 737.855C352.351 738.471 352.235 738.481 346.505 738.408C335.413 738.267 321.566 738.809 313.332 739.705C312.489 739.797 311.762 739.825 311.717 739.768C311.335 739.275 310.297 726.22 310.207 720.771C310.087 713.5 310.197 711.436 311.093 704.127C312.083 696.055 312.722 693.224 314.686 688.226C316.751 682.968 319.061 679.607 322.404 676.996ZM407.722 706.39C423.135 695.738 437.949 689.277 448.889 688.435C451.913 688.202 456.31 688.698 458.643 689.535C466.416 692.324 470.531 700.322 470.789 713.138C470.87 717.189 470.059 725.32 469.075 730.317C467.648 737.567 465.12 746.544 462.464 753.788C460.921 757.998 460.804 758.245 460.436 758.048C459.906 757.765 449.333 754.296 445.424 753.123C440.623 751.682 432.064 749.415 426.356 748.074C423.643 747.436 421.559 746.827 421.412 746.629C421.273 746.441 419.779 743.816 418.092 740.795C413.1 731.859 406.517 721.301 401.612 714.362C400.802 713.216 400.149 712.2 400.161 712.104C400.191 711.858 404.269 708.776 407.722 706.39ZM369.987 739.062C370.389 738.274 382.1 727.023 386.881 722.832C388.323 721.567 389.603 720.544 389.724 720.559C390.03 720.597 393.312 725.368 397.182 731.401C400.178 736.072 404.299 742.86 404.398 743.288C404.421 743.386 396.669 742.513 387.171 741.347C377.674 740.18 369.941 739.153 369.987 739.062ZM365.119 752.326C368.166 752.549 371.282 752.769 372.045 752.814C372.808 752.859 379.961 753.729 387.939 754.748C400.556 756.36 409.616 757.76 412.122 758.486C412.77 758.674 413.193 759.382 415.667 764.429C421.958 777.261 427.955 791.565 432.531 804.654L434.282 809.662L432.461 812.446C423.937 825.474 411.264 842.344 402.925 851.764L401.057 853.874L399.342 853.825C388.056 853.506 362.952 850.489 349.956 847.89C346.763 847.252 346.586 847.186 346.12 846.468C345.303 845.207 340.36 834.828 337.53 828.431C333.359 819.002 329.249 808.632 326.117 799.636L324.927 796.218L329.046 790.02C336.397 778.959 345.147 767.29 353.701 757.141C357.518 752.612 358.126 751.995 358.807 751.959C359.233 751.937 362.073 752.102 365.119 752.326ZM431.23 766.608C430.165 764.313 429.296 762.41 429.299 762.378C429.303 762.347 429.555 762.392 429.859 762.478C430.162 762.564 432.071 763.077 434.101 763.617C441.054 765.468 454.65 769.717 455.423 770.281C455.828 770.576 450.842 780.898 446.041 789.703C444.762 792.05 443.563 794.187 443.378 794.451C443.083 794.872 442.728 794.13 440.475 788.39C437.524 780.87 434.022 772.619 431.23 766.608ZM313.947 752.913C314.744 752.598 326.936 751.833 334.388 751.63C337.095 751.556 339.724 751.537 340.229 751.589L341.149 751.681L338.285 755.23C334.145 760.357 328.743 767.528 324.07 774.097C320.496 779.122 319.971 779.756 319.787 779.276C319.671 778.975 319.025 776.612 318.352 774.025C315.827 764.333 313.482 753.097 313.947 752.913ZM295.145 755.489C297.326 755.083 299.324 754.722 299.584 754.687C299.845 754.652 300.187 754.627 300.344 754.629C300.501 754.632 301.032 756.67 301.523 759.157C303.475 769.035 306.042 779.346 309.011 789.233L310.586 794.477L308.194 798.468C302.482 808 296.37 819.521 292.585 827.892C291.395 830.523 291.253 830.731 290.775 830.529C290.49 830.408 288.687 829.598 286.767 828.728C268.507 820.449 255.588 811.503 248.243 802.049C242.65 794.85 241.089 788.528 243.414 782.499C247.983 770.654 266.955 760.749 295.145 755.489ZM451.2 807.075C457.223 796.88 461.506 788.834 465.959 779.347C467.036 777.052 468.013 775.187 468.131 775.201C468.669 775.267 476.605 778.928 480.195 780.766C494.079 787.873 504.265 795.396 510.513 803.156C517.56 811.907 518.69 819.482 514.033 826.748C506.899 837.878 487.07 846.695 458.996 851.219C458.648 851.275 458.474 850.773 458.088 848.598C456.587 840.159 453.134 826.216 449.985 815.878L448.629 811.426L451.2 807.075ZM355.506 790.914C359.807 782.027 368.964 776.135 379.028 775.78C381.654 775.687 386.72 776.601 389.372 777.646C403.605 783.256 410.328 799.467 404.296 813.637C402.117 818.756 398.139 823.292 393.242 826.241C382.032 832.994 367.344 830.423 358.962 820.24C352.104 811.908 350.781 800.679 355.506 790.914ZM229.5 785.617C229.375 786.195 229.399 785.648 229.553 784.401C229.707 783.154 229.809 782.68 229.779 783.349C229.75 784.018 229.624 785.038 229.5 785.617ZM419.553 852.33C425.203 845.366 433.775 833.912 437.536 828.3C438.425 826.973 439.216 825.977 439.293 826.086C439.949 827.016 445.898 852.623 445.525 852.916C445.087 853.261 425.035 854.314 419.454 854.285L417.972 854.278L419.553 852.33ZM303.546 835.463C303.349 835.228 309.478 822.927 313.137 816.212C314.699 813.344 316.058 811.008 316.155 811.02C316.252 811.032 316.983 812.776 317.778 814.897C320.498 822.152 325.329 833.576 328.884 841.165C329.602 842.696 329.816 843.389 329.561 843.358C328.85 843.271 320.433 840.933 316.166 839.639C312.404 838.497 303.665 835.606 303.546 835.463ZM293.703 861.259C294.853 857.461 297.804 848.853 298.252 847.987C298.367 847.766 298.643 847.733 299.089 847.889C311.214 852.107 323.327 855.602 334.296 858.048C336.032 858.435 337.534 858.825 337.634 858.915C337.734 859.005 339.008 861.223 340.465 863.844C346.102 873.985 353.078 885.194 357.76 891.633C358.584 892.766 359.07 893.671 358.963 893.874C358.864 894.06 356.863 895.591 354.516 897.274C339.782 907.844 326.714 914.335 315.608 916.598C310.956 917.546 308.765 917.657 304.744 917.145C301.637 916.749 301.021 916.594 299.27 915.765C296.666 914.532 294.126 912.31 292.644 909.968C290.381 906.392 288.853 900.87 288.538 895.132C288.034 885.937 289.864 873.933 293.703 861.259ZM369.478 885.345C368.957 885.281 357.357 867.293 355.004 862.899L354.518 861.992L356.086 862.386C358.136 862.901 385.949 866.314 388.066 866.311L389.698 866.308L388.865 867.183C383.572 872.742 370.045 885.415 369.478 885.345Z" fill="#58C4DC"/>
<path fill-rule="evenodd" clip-rule="evenodd" d="M270.974 236.677C265.68 237.627 260.536 239.732 256.284 242.688C250.096 246.99 245.331 253.044 242.686 259.968C242.206 261.222 241.664 262.82 241.479 263.52C238.407 275.188 240.85 287.167 248.203 296.477C255.01 305.097 264.864 310.086 276.171 310.637C278.213 310.736 283.239 310.257 285.345 309.762C300.453 306.21 311.634 294.203 313.972 279.022C314.267 277.108 314.471 273.903 314.372 272.755C314.332 272.301 314.362 271.883 314.437 271.827C314.516 271.768 314.509 270.988 314.421 269.984C314.323 268.86 314.22 268.279 314.132 268.345C314.047 268.409 313.967 268.13 313.921 267.605C313.818 266.441 313.064 263.329 312.438 261.485C307.551 247.091 294.508 237.132 279.358 236.223C277.137 236.09 272.996 236.314 270.974 236.677ZM291.399 259.087C291.171 259.23 286.831 264.313 281.753 270.381L272.521 281.414L267.411 277.11C264.601 274.743 262.088 272.726 261.827 272.629C259.972 271.937 258.167 273.751 258.839 275.631C259.029 276.16 259.816 276.876 265.291 281.497C268.72 284.392 271.742 286.841 272.005 286.939C272.614 287.167 273.43 287.096 273.989 286.767C274.23 286.625 279.006 281.027 284.602 274.327C293.69 263.447 294.788 262.078 294.884 261.515C295.009 260.781 294.773 259.982 294.275 259.45C293.599 258.728 292.241 258.556 291.399 259.087ZM240.332 276.629C240.419 277.626 240.478 278.032 240.462 277.531C240.447 277.03 240.375 276.214 240.304 275.718C240.232 275.222 240.244 275.632 240.332 276.629Z" fill="#4BAE4F"/>
<path d="M291.399 259.087C291.171 259.23 286.831 264.313 281.753 270.381L272.521 281.414L267.411 277.11C264.601 274.743 262.088 272.726 261.827 272.629C259.972 271.937 258.167 273.751 258.839 275.631C259.029 276.16 259.816 276.876 265.291 281.497C268.72 284.392 271.742 286.841 272.005 286.939C272.614 287.167 273.43 287.096 273.989 286.767C274.23 286.625 279.006 281.027 284.602 274.327C293.69 263.447 294.788 262.078 294.884 261.515C295.009 260.781 294.773 259.982 294.275 259.45C293.599 258.728 292.241 258.556 291.399 259.087Z" fill="white"/>
<path d="M91.2183 76.5325L242.608 63.2876L251 230.5L229.5 243.5L226 263L107.944 267.712L91.2183 76.5325Z" fill="white"/>
<path fill-rule="evenodd" clip-rule="evenodd" d="M63.2514 62.9528C63.3078 62.944 64.1905 62.5461 65.2134 62.0693C66.8166 61.3214 81.0465 59.9936 168.416 52.4385C263.372 44.2273 269.858 43.7193 271.346 44.3771C273.878 45.4965 275.191 47.6761 275.498 51.27C275.643 52.9676 276.212 100.439 276.76 156.762C277.074 189.023 277.303 211.365 277.403 226.89C274.657 226.92 271.27 227.162 269.374 227.503C262.757 228.69 256.326 231.321 251.011 235.016C243.276 240.394 237.32 247.962 234.013 256.616C233.414 258.184 232.736 260.182 232.505 261.056C230.611 268.251 230.394 275.54 231.764 282.476C211.084 291.08 190.554 299.419 189.307 299.528C186.783 299.749 100.582 280.478 98.488 279.225C98.2185 279.063 97.9808 278.958 97.7591 278.827C95.4666 277.466 94.8761 273.238 78.3922 174.117C69.152 118.554 61.4657 71.676 61.3107 69.9427C61.08 67.3605 61.2207 66.4467 62.0892 64.8802C62.6723 63.8289 63.1951 62.9616 63.2514 62.9528ZM109.679 144.427C106.033 122.512 103.025 104.302 102.995 103.961C102.952 103.459 116.082 102.191 171.618 97.3324L240.294 91.324L240.379 92.4128C240.426 93.0115 240.488 98.6523 240.518 104.948C240.548 111.243 240.61 116.883 240.657 117.482L240.742 118.571L188.646 123.129L136.551 127.687L136.897 128.996C137.088 129.716 138.239 135.481 139.456 141.807C140.673 148.132 141.848 154.004 142.069 154.856L142.471 156.404L191.675 152.099C224.334 149.242 240.893 147.958 240.922 148.281C240.989 149.057 241.777 229.722 241.726 230.725C241.689 231.473 236.791 233.68 213.904 243.262C198.627 249.658 185.804 254.919 185.408 254.954C183.647 255.108 125.928 241.712 125.77 241.113C125.677 240.759 124.191 231.823 122.467 221.254C120.744 210.685 119.148 201.232 118.922 200.247L118.51 198.455L133.884 197.11L149.258 195.765L150.187 206.385L151.116 217.005L153.206 217.386C154.356 217.597 161.629 218.901 169.368 220.286L183.44 222.802L198.535 217.234C206.837 214.171 213.705 211.575 213.798 211.463C213.921 211.315 213.632 179.298 213.493 177.713C213.482 177.584 191.645 179.388 164.967 181.722C119.092 185.736 116.457 185.92 116.384 185.12C116.342 184.655 113.324 166.343 109.679 144.427ZM231.234 278.57C231.253 279.197 231.179 278.689 231.07 277.443C230.961 276.196 230.946 275.684 231.035 276.304C231.125 276.924 231.215 277.944 231.234 278.57Z" fill="#FC490B"/>
<path fill-rule="evenodd" clip-rule="evenodd" d="M467.537 533.321C462.165 533.056 456.679 533.949 451.871 535.873C444.874 538.673 438.869 543.5 434.734 549.651C433.985 550.765 433.097 552.201 432.76 552.841C427.141 563.519 426.827 575.74 431.897 586.466C436.591 596.397 445.07 603.474 455.964 606.554C457.931 607.11 462.935 607.774 465.099 607.765C480.618 607.703 494.214 598.519 499.907 584.253C500.625 582.455 501.545 579.378 501.706 578.236C501.77 577.785 501.893 577.384 501.979 577.347C502.069 577.307 502.238 576.545 502.378 575.547C502.535 574.431 502.566 573.841 502.465 573.886C502.368 573.929 502.353 573.639 502.426 573.117C502.587 571.96 502.553 568.758 502.357 566.821C500.833 551.696 490.366 539.058 475.808 534.765C473.674 534.136 469.589 533.422 467.537 533.321ZM482.397 559.751C482.143 559.839 476.77 563.815 470.458 568.586L458.98 577.259L454.97 571.916C452.764 568.977 450.769 566.447 450.536 566.293C448.885 565.202 446.718 566.564 446.95 568.547C447.016 569.105 447.622 569.979 451.917 575.714C454.607 579.306 457 582.372 457.234 582.527C457.777 582.885 458.588 583 459.207 582.805C459.473 582.721 465.386 578.341 472.346 573.072C483.649 564.515 485.027 563.428 485.246 562.901C485.533 562.213 485.483 561.382 485.118 560.752C484.622 559.896 483.337 559.423 482.397 559.751ZM428.692 565.356C428.553 566.347 428.519 566.756 428.617 566.264C428.714 565.773 428.828 564.962 428.87 564.462C428.912 563.962 428.832 564.365 428.692 565.356Z" fill="#4BAE4F"/>
<path d="M482.397 559.751C482.143 559.839 476.77 563.815 470.458 568.586L458.98 577.259L454.97 571.916C452.764 568.977 450.769 566.447 450.536 566.293C448.885 565.202 446.718 566.564 446.95 568.547C447.016 569.105 447.622 569.979 451.917 575.714C454.607 579.306 457 582.372 457.234 582.527C457.777 582.885 458.588 583 459.207 582.805C459.473 582.721 465.386 578.341 472.346 573.072C483.649 564.515 485.027 563.428 485.246 562.901C485.533 562.213 485.483 561.382 485.118 560.752C484.622 559.896 483.337 559.423 482.397 559.751Z" fill="white"/>
<path d="M343.552 343L489.013 360.86L467 520.5L440.5 523L419 544.5L322.539 514.14L343.552 343Z" fill="white"/>
<path fill-rule="evenodd" clip-rule="evenodd" d="M314.376 531.903C314.135 531.595 324.306 328.945 324.699 326.221L324.875 325.001L424.392 338.987L523.91 352.973L523.743 354.195C523.465 356.231 496.198 473.326 483.426 527.633C481.793 526.941 480.11 526.336 478.38 525.826C475.713 525.04 470.606 524.148 468.042 524.021C461.327 523.69 454.469 524.807 448.458 527.212C439.712 530.711 432.207 536.746 427.038 544.434C426.102 545.827 424.991 547.621 424.57 548.421C422.188 552.948 420.569 557.696 419.716 562.518C401.742 564.836 392.545 565.871 391.83 565.657C389.917 565.087 314.688 532.302 314.376 531.903ZM354.102 384.713C354.553 378.478 354.974 373.027 355.038 372.6C355.15 371.864 358.474 372.29 418.526 380.73C478.579 389.17 481.89 389.677 481.789 390.413C481.696 391.089 469.982 441.426 456.711 498.174L452.507 516.149L425.487 519.658L398.467 523.168L373.712 512.458C360.096 506.567 348.852 501.597 348.725 501.414C348.598 501.23 348.954 492.484 349.516 481.978C350.078 471.472 350.523 462.313 350.504 461.625L350.47 460.375L363.35 462.185L376.23 463.996L376.22 465.919C376.215 466.977 376.011 471.686 375.768 476.384C375.523 481.082 375.373 485 375.433 485.091C375.493 485.182 381.542 487.811 388.874 490.934L402.205 496.611L416.638 494.819C424.576 493.833 431.132 492.975 431.207 492.913C431.336 492.805 439.638 460.41 439.761 459.532C439.797 459.282 422.54 456.753 395.636 453.065L351.453 447.01L351.374 445.939C351.263 444.433 352.077 422.463 352.247 422.367C352.324 422.323 373.296 424.985 398.852 428.281C424.407 431.578 445.394 434.217 445.489 434.145C445.656 434.02 450.503 412.181 450.761 410.393C450.887 409.51 450.635 409.47 402.085 402.778L353.283 396.051L354.102 384.713Z" fill="#2196F3"/>
<path fill-rule="evenodd" clip-rule="evenodd" d="M33.9743 649.677C28.6804 650.627 23.5362 652.732 19.2835 655.688C13.0956 659.99 8.33114 666.044 5.68559 672.968C5.20638 674.222 4.66362 675.82 4.47936 676.52C1.40655 688.188 3.85014 700.167 11.2027 709.477C18.0102 718.098 27.8639 723.086 39.1714 723.637C41.2134 723.736 46.2385 723.257 48.3447 722.762C63.4526 719.21 74.6343 707.203 76.9722 692.022C77.2668 690.108 77.4711 686.903 77.3715 685.755C77.3322 685.301 77.3615 684.883 77.4367 684.827C77.5156 684.768 77.5089 683.988 77.4211 682.984C77.3228 681.86 77.2203 681.279 77.1321 681.345C77.0469 681.409 76.9673 681.13 76.9209 680.605C76.8183 679.442 76.0641 676.329 75.438 674.485C70.5505 660.091 57.5084 650.132 42.3578 649.223C40.1373 649.09 35.996 649.315 33.9743 649.677ZM54.3992 672.087C54.1714 672.23 49.8306 677.313 44.753 683.381L35.521 694.414L30.4112 690.11C27.6007 687.743 25.0876 685.726 24.8265 685.629C22.9723 684.937 21.1669 686.752 21.8392 688.631C22.0285 689.16 22.8159 689.876 28.2907 694.497C31.7204 697.392 34.7417 699.841 35.0046 699.939C35.6141 700.167 36.4298 700.096 36.9893 699.767C37.23 699.625 42.0057 694.027 47.602 687.327C56.6901 676.447 57.7884 675.078 57.8839 674.515C58.0085 673.781 57.773 672.982 57.275 672.45C56.5994 671.728 55.2406 671.556 54.3992 672.087ZM3.33144 689.629C3.41869 690.626 3.47752 691.033 3.46208 690.531C3.4468 690.03 3.37541 689.214 3.30344 688.718C3.23164 688.222 3.24419 688.632 3.33144 689.629Z" fill="#4BAE4F"/>
<path d="M54.3992 672.087C54.1714 672.23 49.8306 677.313 44.753 683.381L35.521 694.414L30.4112 690.11C27.6007 687.743 25.0876 685.726 24.8265 685.629C22.9723 684.937 21.1669 686.752 21.8392 688.631C22.0285 689.16 22.8159 689.876 28.2907 694.497C31.7204 697.392 34.7417 699.841 35.0046 699.939C35.6141 700.167 36.4298 700.096 36.9893 699.767C37.23 699.625 42.0057 694.027 47.602 687.327C56.6901 676.447 57.7884 675.078 57.8839 674.515C58.0085 673.781 57.773 672.982 57.275 672.45C56.5994 671.728 55.2406 671.556 54.3992 672.087Z" fill="white"/>
<rect x="74.8289" y="552.173" width="151.149" height="105.227" transform="rotate(-5 74.8289 552.173)" fill="black"/>
<path fill-rule="evenodd" clip-rule="evenodd" d="M28.8404 639.74L23.094 574.059L14 470.113L117.519 461.057L221.038 452L230.022 555.852L239.005 659.703L135.596 668.854L86.2705 673.218C86.05 672.427 85.8221 671.673 85.606 671.037C79.3012 652.469 62.4768 639.621 42.9326 638.449C40.0681 638.277 34.7259 638.567 32.1179 639.034C31.0191 639.232 29.9252 639.467 28.8404 639.74ZM27.9496 626.072C30.3996 654.736 28.3119 631.413 23.3103 574.243C18.3086 517.074 16.304 493.622 18.8557 522.128C21.4074 550.634 25.4997 597.409 27.9496 626.072ZM166.231 554.628C168.619 553.291 172.772 551.75 175.624 551.144C178.021 550.635 185.393 550.436 188.403 550.799C192.861 551.336 197.767 553.461 201.551 556.494C205.589 559.728 208.697 563.464 207.997 564.24C207.735 564.532 204.535 567.081 200.888 569.904L194.257 575.036L193.125 573.603C189.695 569.255 186.122 567.506 181.371 567.849C176.013 568.235 172.529 571.504 172.6 576.079C172.662 580.1 174.161 582.492 177.987 584.673C179.015 585.259 183.787 587.097 188.591 588.757C198.514 592.185 202.588 593.973 206.757 596.73C214.262 601.694 218.004 608.187 218.855 617.725C219.553 625.551 217.869 631.261 213.229 636.801C209.001 641.848 203.868 644.835 196.254 646.681C182.439 650.029 168.656 647.315 159.281 639.399C157.039 637.506 152.182 631.904 152.126 631.145C152.11 630.932 156.477 627.761 165.162 621.678L166.984 620.402L169.015 622.794C173.93 628.58 179.892 631.128 187.03 630.492C191.948 630.054 195.313 628.554 197.489 625.832C199.957 622.744 200.184 619.099 198.119 615.708C196.169 612.508 193.726 611.254 181.223 607.037C169.623 603.124 163.707 599.787 159.538 594.803C155.59 590.084 153.469 584.245 153.29 577.601C153.018 567.55 157.561 559.485 166.231 554.628ZM120.492 631.82C121.654 629.365 121.37 626.225 118.574 592.81L115.608 557.372L125.277 556.526L134.947 555.68L137.981 590.367C139.964 613.031 140.961 626.161 140.856 628.25C140.245 640.426 134.519 648.501 123.69 652.456C121.191 653.369 119.325 653.72 114.688 654.148C107.467 654.815 104.155 654.432 98.6661 652.297C95.2627 650.973 94.0759 650.237 90.7061 647.358C88.1869 645.207 86.1736 643.084 85.1748 641.527C84.3111 640.18 83.6633 639.026 83.7354 638.963C83.8071 638.9 87.1564 636.426 91.1779 633.465L98.4903 628.083L100.829 631.085C102.115 632.736 103.899 634.596 104.794 635.218C109.458 638.461 117.591 637.129 120.012 632.726C120.192 632.4 120.352 632.115 120.492 631.82Z" fill="#FFDF00"/>
<defs>
<linearGradient id="paint0_linear_8_40" x1="305" y1="199.339" x2="430" y2="313.339" gradientUnits="userSpaceOnUse">
<stop stop-color="#FC490B"/>
<stop offset="1" stop-color="#2196F3"/>
</linearGradient>
<linearGradient id="paint1_linear_8_40" x1="96" y1="442" x2="293.697" y2="440.631" gradientUnits="userSpaceOnUse">
<stop stop-color="#FFDF00"/>
<stop offset="1" stop-color="#2196F3"/>
</linearGradient>
<linearGradient id="paint2_linear_8_40" x1="37" y1="760" x2="47.9196" y2="904.608" gradientUnits="userSpaceOnUse">
<stop offset="0.2867" stop-color="#FFDF00"/>
<stop offset="1" stop-color="#58C4DC"/>
</linearGradient>
</defs>
</svg>
