<svg width="625" height="728" viewBox="0 0 625 728" fill="none" xmlns="http://www.w3.org/2000/svg">
<path d="M625 173.058H621.001V63.5128C621.001 46.6976 614.321 30.571 602.431 18.6809C590.541 6.79069 574.415 0.110858 557.599 0.11084H325.513C308.697 0.110808 292.571 6.79059 280.681 18.6807C268.791 30.5708 262.111 46.6973 262.111 63.5125V664.487C262.111 681.302 268.79 697.429 280.681 709.319C292.571 721.209 308.697 727.889 325.512 727.889H557.599C574.414 727.889 590.541 721.209 602.431 709.319C614.321 697.429 621.001 681.302 621.001 664.487V251.034H625L625 173.058Z" fill="#3F3D56"/>
<path d="M607.506 63.9551V664.045C607.506 676.603 602.517 688.647 593.638 697.526C584.758 706.406 572.714 711.395 560.156 711.395H326.956C314.398 711.395 302.355 706.406 293.475 697.526C284.595 688.647 279.607 676.603 279.606 664.045V63.9551C279.607 51.3972 284.595 39.3537 293.475 30.4739C302.355 21.5941 314.398 16.6054 326.956 16.6051H355.246C353.856 20.0211 353.327 23.7263 353.705 27.3949C354.083 31.0635 355.356 34.583 357.414 37.6438C359.471 40.7046 362.249 43.213 365.503 44.9482C368.758 46.6835 372.388 47.5924 376.076 47.5951H509.036C512.724 47.5924 516.355 46.6834 519.609 44.9482C522.864 43.2129 525.642 40.7046 527.699 37.6438C529.756 34.5829 531.03 31.0635 531.408 27.3949C531.786 23.7263 531.256 20.0211 529.866 16.6051H560.156C572.714 16.6054 584.758 21.5941 593.638 30.4739C602.517 39.3537 607.506 51.3972 607.506 63.9551Z" fill="white"/>
<path d="M532.381 322.711C530.83 323.521 529.253 324.288 527.65 325.011C526.19 325.671 524.707 326.291 523.2 326.871C522.65 327.081 522.091 327.291 521.531 327.501C517.103 329.107 512.555 330.361 507.93 331.251C505.64 331.701 503.32 332.055 500.97 332.311C499.03 332.531 497.071 332.688 495.091 332.781C493.68 332.851 492.27 332.881 490.85 332.881C485.227 332.884 479.616 332.358 474.091 331.311C472.65 331.051 471.24 330.741 469.83 330.401C463.01 328.767 456.407 326.33 450.16 323.141C449.6 322.861 449.04 322.561 448.48 322.271C447.65 321.831 446.841 321.371 446.03 320.891C446.42 320.351 446.841 319.821 447.27 319.301C451.95 313.502 457.798 308.755 464.435 305.367C471.072 301.98 478.349 300.03 485.79 299.643C493.231 299.256 500.671 300.441 507.623 303.122C514.576 305.803 520.885 309.919 526.14 315.201C527.964 317.032 529.655 318.99 531.2 321.061C531.61 321.601 532 322.151 532.381 322.711Z" fill="black"/>
<path d="M492.846 278.784C517.097 278.784 536.756 259.125 536.756 234.874C536.756 210.624 517.097 190.965 492.846 190.965C468.595 190.965 448.936 210.624 448.936 234.874C448.936 259.125 468.595 278.784 492.846 278.784Z" fill="#2F2E41"/>
<path d="M504.525 278.846C520.362 270.189 526.183 250.332 517.525 234.494C508.868 218.657 489.011 212.837 473.174 221.494C457.336 230.152 451.516 250.008 460.173 265.846C468.831 281.683 488.688 287.504 504.525 278.846Z" fill="#A0616A"/>
<path d="M523.189 229.614C515.721 234.761 506.857 237.5 497.787 237.464C501.023 239.708 504.706 241.223 508.583 241.906C496.524 244.493 484.061 244.563 471.973 242.111C469.286 241.681 466.694 240.79 464.309 239.479C463.121 238.816 462.086 237.909 461.271 236.819C460.456 235.729 459.879 234.48 459.579 233.153C458.775 228.564 462.351 224.395 466.067 221.586C471.756 217.35 478.315 214.431 485.271 213.041C492.226 211.651 499.403 211.825 506.283 213.549C510.776 214.71 515.276 216.673 518.194 220.28C521.112 223.888 521.976 229.45 519.196 233.165L523.189 229.614Z" fill="#2F2E41"/>
<path d="M490.85 152.881C471.223 152.878 452.132 159.293 436.488 171.148C420.845 183.002 409.506 199.646 404.2 218.543C398.895 237.441 399.913 257.554 407.1 275.819C414.288 294.084 427.25 309.497 444.011 319.711L444.591 320.051C445.071 320.341 445.551 320.621 446.03 320.891C446.841 321.371 447.65 321.831 448.48 322.271C449.04 322.561 449.6 322.861 450.16 323.141C456.407 326.33 463.01 328.767 469.83 330.401C471.24 330.741 472.65 331.051 474.091 331.311C479.616 332.358 485.227 332.884 490.85 332.881C492.27 332.881 493.68 332.851 495.091 332.781C497.071 332.691 499.03 332.535 500.97 332.311C503.321 332.051 505.641 331.698 507.93 331.251C512.555 330.361 517.103 329.107 521.531 327.501C522.091 327.291 522.65 327.081 523.2 326.871C524.71 326.291 526.193 325.671 527.65 325.011C529.25 324.291 530.827 323.525 532.381 322.711C547.948 314.558 560.815 302.063 569.42 286.741C569.46 286.661 569.511 286.581 569.551 286.501C574.142 278.263 577.399 269.349 579.201 260.091C581.73 247.059 581.347 233.628 578.078 220.761C574.81 207.894 568.737 195.908 560.294 185.663C551.851 175.418 541.247 167.166 529.242 161.499C517.236 155.832 504.126 152.889 490.85 152.881ZM567.91 285.331C567.83 285.471 567.76 285.611 567.68 285.741C559.247 300.837 546.561 313.12 531.2 321.061C529.67 321.861 528.113 322.611 526.53 323.311C525.22 323.901 523.881 324.461 522.53 324.981C521.96 325.201 521.381 325.421 520.8 325.621C516.975 327.018 513.055 328.141 509.071 328.981C506.114 329.611 503.127 330.081 500.12 330.391C498.27 330.591 496.39 330.731 494.5 330.801C493.29 330.851 492.071 330.881 490.85 330.881C485.408 330.888 479.978 330.382 474.631 329.371C471.378 328.771 468.162 327.983 465 327.011C460.184 325.523 455.504 323.626 451.01 321.341C450.49 321.071 449.97 320.801 449.46 320.521C448.73 320.131 447.99 319.731 447.27 319.301C446.73 319.001 446.19 318.681 445.66 318.361C445.35 318.181 445.04 317.991 444.73 317.801C430.035 308.777 418.312 295.636 411.017 280.01C403.722 264.383 401.175 246.959 403.693 229.899C406.21 212.838 413.681 196.892 425.178 184.039C436.676 171.185 451.694 161.991 468.37 157.595C485.045 153.199 502.645 153.796 518.984 159.312C535.324 164.827 549.684 175.018 560.285 188.621C570.885 202.224 577.258 218.64 578.614 235.832C579.969 253.024 576.248 270.235 567.91 285.331Z" fill="#3F3D56"/>
<path d="M470.61 191.571C470.137 186.603 464.051 183.544 459.292 185.045C454.533 186.545 451.408 191.338 450.463 196.238C450.009 198.301 449.966 200.435 450.338 202.515C450.709 204.595 451.488 206.581 452.629 208.36C455.034 211.822 459.455 213.983 463.579 213.104C468.286 212.101 471.547 207.505 472.48 202.783C473.413 198.062 472.487 193.194 471.561 188.471L470.61 191.571Z" fill="#2F2E41"/>
<path d="M537.592 198.668C537.12 193.7 531.034 190.641 526.274 192.142C521.515 193.642 518.39 198.435 517.446 203.335C516.991 205.399 516.948 207.532 517.32 209.612C517.692 211.692 518.47 213.678 519.611 215.457C522.017 218.92 526.438 221.08 530.561 220.201C535.268 219.198 538.529 214.602 539.462 209.88C540.395 205.159 539.469 200.291 538.544 195.568L537.592 198.668Z" fill="#2F2E41"/>
<path d="M335.287 278.85C334.664 278.849 334.048 278.719 333.479 278.466C332.91 278.214 332.399 277.846 331.98 277.385L282.358 223.252C281.795 222.639 281.111 222.15 280.349 221.814C279.587 221.479 278.764 221.306 277.932 221.305H15.7122C11.7328 221.3 7.91775 219.717 5.10393 216.904C2.29011 214.09 0.707349 210.275 0.702881 206.295V111.733C0.707346 107.754 2.29011 103.939 5.10393 101.125C7.91775 98.311 11.7328 96.7282 15.7122 96.7237H355.437C359.417 96.7282 363.232 98.311 366.046 101.125C368.859 103.939 370.442 107.754 370.447 111.733V206.296C370.442 210.275 368.859 214.09 366.046 216.904C363.232 219.718 359.417 221.3 355.437 221.305H345.806C344.214 221.307 342.688 221.94 341.562 223.066C340.436 224.191 339.803 225.718 339.801 227.31V274.343C339.805 275.251 339.533 276.139 339.02 276.888C338.507 277.637 337.779 278.213 336.931 278.539C336.407 278.744 335.849 278.849 335.287 278.85Z" fill="white"/>
<path d="M335.287 278.85C334.664 278.849 334.048 278.719 333.479 278.466C332.91 278.214 332.399 277.846 331.98 277.385L282.358 223.252C281.795 222.639 281.111 222.15 280.349 221.814C279.587 221.479 278.764 221.306 277.932 221.305H15.7122C11.7328 221.3 7.91775 219.717 5.10393 216.904C2.29011 214.09 0.707349 210.275 0.702881 206.295V111.733C0.707346 107.754 2.29011 103.939 5.10393 101.125C7.91775 98.311 11.7328 96.7282 15.7122 96.7237H355.437C359.417 96.7282 363.232 98.311 366.046 101.125C368.859 103.939 370.442 107.754 370.447 111.733V206.296C370.442 210.275 368.859 214.09 366.046 216.904C363.232 219.718 359.417 221.3 355.437 221.305H345.806C344.214 221.307 342.688 221.94 341.562 223.066C340.436 224.191 339.803 225.718 339.801 227.31V274.343C339.805 275.251 339.533 276.139 339.02 276.888C338.507 277.637 337.779 278.213 336.931 278.539C336.407 278.744 335.849 278.849 335.287 278.85ZM15.7122 98.7237C12.2631 98.7276 8.95637 100.099 6.5175 102.538C4.07863 104.977 2.70677 108.284 2.70288 111.733V206.296C2.70678 209.745 4.07865 213.051 6.51752 215.49C8.95639 217.929 12.2631 219.301 15.7122 219.305H277.932C279.041 219.306 280.138 219.537 281.154 219.984C282.17 220.431 283.082 221.083 283.832 221.9L333.454 276.034C333.795 276.405 334.24 276.665 334.731 276.78C335.222 276.894 335.736 276.858 336.206 276.675C336.676 276.492 337.08 276.172 337.364 275.756C337.649 275.339 337.801 274.847 337.801 274.343V227.31C337.804 225.187 338.648 223.153 340.148 221.652C341.649 220.151 343.684 219.307 345.806 219.305H355.437C358.886 219.301 362.193 217.929 364.632 215.49C367.071 213.051 368.443 209.745 368.447 206.296V111.733C368.443 108.284 367.071 104.977 364.632 102.538C362.193 100.099 358.886 98.7276 355.437 98.7237H15.7122Z" fill="#3F3D56"/>
<path d="M37.5189 138.438C44.7724 138.438 50.6526 132.558 50.6526 125.304C50.6526 118.051 44.7724 112.171 37.5189 112.171C30.2653 112.171 24.3852 118.051 24.3852 125.304C24.3852 132.558 30.2653 138.438 37.5189 138.438Z" fill="black"/>
<path d="M340.115 197.977H31.0348C30.1143 197.979 29.2025 197.798 28.3517 197.447C27.5009 197.095 26.7277 196.579 26.0764 195.929C25.4251 195.278 24.9083 194.506 24.5558 193.655C24.2033 192.805 24.0218 191.893 24.0218 190.973C24.0218 190.052 24.2033 189.141 24.5558 188.29C24.9083 187.44 25.4251 186.667 26.0764 186.017C26.7277 185.366 27.5009 184.851 28.3517 184.499C29.2025 184.147 30.1143 183.967 31.0348 183.968H340.115C341.971 183.97 343.751 184.709 345.062 186.023C346.374 187.336 347.111 189.117 347.111 190.973C347.111 192.829 346.374 194.61 345.062 195.923C343.751 197.236 341.971 197.975 340.115 197.977Z" fill="#E6E6E6"/>
<path d="M239.423 168.208H31.0348C30.1143 168.209 29.2025 168.028 28.3517 167.677C27.5009 167.325 26.7277 166.81 26.0764 166.159C25.4251 165.509 24.9083 164.736 24.5558 163.886C24.2033 163.035 24.0218 162.124 24.0218 161.203C24.0218 160.283 24.2033 159.371 24.5558 158.521C24.9083 157.67 25.4251 156.898 26.0764 156.247C26.7277 155.597 27.5009 155.081 28.3517 154.729C29.2025 154.378 30.1143 154.197 31.0348 154.198H239.423C241.281 154.198 243.062 154.936 244.376 156.25C245.69 157.564 246.428 159.345 246.428 161.203C246.428 163.061 245.69 164.842 244.376 166.156C243.062 167.47 241.281 168.208 239.423 168.208Z" fill="#E6E6E6"/>
<path d="M449.881 628.821C435.949 637.742 419.808 642.607 403.267 642.87C386.726 643.133 370.439 638.784 356.23 630.311C358.73 625.659 361.897 621.397 365.631 617.661C371.392 611.873 378.403 607.482 386.126 604.826C393.849 602.17 402.078 601.319 410.181 602.34C418.284 603.361 426.045 606.225 432.868 610.714C439.691 615.202 445.395 621.195 449.54 628.231C449.65 628.421 449.77 628.621 449.881 628.821Z" fill="black"/>
<path d="M399.145 581.001C423.557 581.001 443.347 561.211 443.347 536.799C443.347 512.387 423.557 492.598 399.145 492.598C374.734 492.598 354.944 512.387 354.944 536.799C354.944 561.211 374.734 581.001 399.145 581.001Z" fill="#2F2E41"/>
<path d="M432.035 567.976C440.75 552.034 434.891 532.045 418.949 523.33C403.006 514.615 383.017 520.474 374.302 536.417C365.587 552.359 371.447 572.348 387.389 581.063C403.332 589.778 423.321 583.919 432.035 567.976Z" fill="#FFB8B8"/>
<path d="M368.601 531.504C376.118 536.685 385.041 539.443 394.172 539.406C390.915 541.665 387.207 543.19 383.304 543.877C395.443 546.481 407.989 546.552 420.157 544.084C422.862 543.651 425.472 542.754 427.872 541.435C429.068 540.767 430.11 539.854 430.931 538.757C431.751 537.66 432.332 536.402 432.634 535.066C433.443 530.447 429.843 526.25 426.103 523.422C420.376 519.158 413.773 516.22 406.772 514.821C399.77 513.422 392.545 513.597 385.619 515.332C381.097 516.501 376.566 518.476 373.629 522.108C370.692 525.74 369.822 531.339 372.62 535.079L368.601 531.504Z" fill="#2F2E41"/>
<path d="M401.85 643.881C380.203 643.875 359.283 636.063 342.93 621.88C326.576 607.696 315.884 588.092 312.815 566.663C309.746 545.234 314.506 523.418 326.223 505.215C337.939 487.011 355.825 473.643 376.601 467.561C397.376 461.479 419.648 463.092 439.331 472.103C459.014 481.114 474.788 496.92 483.76 516.621C492.731 536.321 494.299 558.597 488.176 579.36C482.052 600.123 468.648 617.983 450.421 629.662C435.927 638.956 419.068 643.892 401.85 643.881ZM401.85 465.881C384.443 465.88 367.427 471.04 352.952 480.71C338.478 490.38 327.197 504.125 320.535 520.206C313.872 536.288 312.129 553.984 315.524 571.057C318.92 588.13 327.302 603.812 339.611 616.121C351.919 628.429 367.602 636.812 384.675 640.207C401.747 643.603 419.443 641.859 435.525 635.197C451.607 628.535 465.352 617.253 475.022 602.779C484.692 588.305 489.852 571.288 489.85 553.881C489.824 530.55 480.544 508.182 464.047 491.685C447.549 475.187 425.181 465.908 401.85 465.881Z" fill="#3F3D56"/>
<path d="M555.346 608.491C568.88 608.491 579.85 607.274 579.85 605.772C579.85 604.27 568.88 603.052 555.346 603.052C541.813 603.052 530.842 604.27 530.842 605.772C530.842 607.274 541.813 608.491 555.346 608.491Z" fill="#F2F2F2"/>
<path d="M336.346 288.491C349.88 288.491 360.85 287.274 360.85 285.772C360.85 284.27 349.88 283.052 336.346 283.052C322.813 283.052 311.842 284.27 311.842 285.772C311.842 287.274 322.813 288.491 336.346 288.491Z" fill="#F2F2F2"/>
</svg>
