<svg width="765" height="1026" viewBox="0 0 765 1026" fill="none" xmlns="http://www.w3.org/2000/svg">
<path d="M663.006 453.742C662.873 451.26 664.776 449.14 667.258 449.007C669.74 448.873 671.86 450.776 671.993 453.258L663.006 453.742ZM580.479 585.941C580.235 588.415 578.033 590.222 575.559 589.978L535.255 586.007C532.781 585.763 530.974 583.56 531.218 581.087C531.461 578.614 533.664 576.806 536.137 577.05L571.964 580.58L575.494 544.754C575.738 542.281 577.94 540.473 580.414 540.717C582.887 540.961 584.694 543.163 584.451 545.637L580.479 585.941ZM671.993 453.258C672.209 457.259 671.657 460.908 670.312 464.178L661.989 460.752C662.752 458.897 663.161 456.613 663.006 453.742L671.993 453.258ZM654.35 478.064C648.833 480.137 642.366 481.362 635.502 482.12L634.514 473.174C641.024 472.455 646.66 471.339 651.183 469.639L654.35 478.064ZM617.05 483.265C611.067 483.436 604.891 483.485 598.803 483.558L598.696 474.558C604.836 474.485 610.907 474.437 616.793 474.269L617.05 483.265ZM580.785 483.985C574.521 484.263 568.586 484.728 563.182 485.542L561.843 476.642C567.677 475.764 573.955 475.279 580.386 474.994L580.785 483.985ZM547.014 489.982C541.821 492.457 538.566 495.709 537.095 500.029L528.575 497.128C531.041 489.885 536.44 485.053 543.14 481.858L547.014 489.982ZM537.481 515.339C538.684 519.892 540.752 525.184 543.87 531.321L535.846 535.398C532.522 528.855 530.186 522.96 528.78 517.64L537.481 515.339ZM552.627 546.434C555.555 551.001 558.914 555.892 562.737 561.129L555.467 566.434C551.553 561.072 548.09 556.032 545.051 551.292L552.627 546.434ZM573.625 575.395C575.497 577.753 577.447 580.169 579.479 582.645L572.522 588.355C570.461 585.843 568.479 583.388 566.576 580.99L573.625 575.395Z" fill="url(#paint0_linear_10_163)"/>
<path fill-rule="evenodd" clip-rule="evenodd" d="M134.247 776.834C108.17 782.898 85.2966 788.214 83.4181 788.646C80.6519 789.283 79.8122 789.637 79.0013 790.511L78 791.59V858.863V926.135L79.0085 927.271L80.017 928.407L129.937 936.167C157.394 940.434 180.638 943.955 181.592 943.99C183.102 944.045 183.473 943.905 184.476 942.896L185.627 941.739L185.74 935.218L185.852 928.697L223.189 928.601L260.525 928.506L261.763 927.065L263 925.624L262.893 855.031C262.806 797.545 262.698 784.281 262.312 783.601C262.052 783.141 261.322 782.448 260.69 782.06C259.572 781.374 258.543 781.355 222.697 781.354L185.852 781.352L185.74 774.826L185.627 768.3L184.545 767.248C183.95 766.67 183.058 766.109 182.562 766.002C182.032 765.888 162.103 770.356 134.247 776.834ZM185.807 804.789V820.242L186.798 819.469C189.949 817.012 190.863 816.389 192.658 815.472C194.928 814.312 199.173 812.924 200.447 812.924H201.311L201.311 823.72L201.312 834.516L202.337 836.694C203.498 839.162 205.646 841.3 208.118 842.45C209.683 843.179 210.443 843.232 220.692 843.34L231.6 843.455L231.388 844.429C230.102 850.349 227.955 854.349 223.854 858.467C220.137 862.199 217.785 863.716 213.303 865.273C209.148 866.717 203.574 867.046 199.291 866.101C195.618 865.29 191.31 863.253 188.241 860.876L185.807 858.991V866.622V874.253H211.064C232.766 874.253 236.468 874.329 237.363 874.795C239.772 876.049 240.283 878.836 238.478 880.87L237.426 882.055L211.616 882.153L185.807 882.251V889.864V897.478H211.064C232.766 897.478 236.468 897.554 237.363 898.02C239.772 899.274 240.283 902.062 238.478 904.095L237.426 905.28L211.616 905.378L185.807 905.476V913.09V920.703H220.24H254.674V855.02V789.336H220.24H185.807V804.789ZM78.1767 858.83C78.1767 895.954 78.2189 911.195 78.2704 892.699C78.322 874.203 78.322 843.828 78.2704 825.2C78.2189 806.573 78.1767 821.706 78.1767 858.83ZM211.081 805.036C210.604 805.283 209.874 805.946 209.458 806.509C208.724 807.505 208.702 807.905 208.702 820.383V833.232L209.881 834.419L211.06 835.605H224.243H237.426L238.527 834.364C239.625 833.128 239.628 833.112 239.425 829.828C238.661 817.492 229.535 807.348 217.176 805.096C213.793 804.479 212.188 804.463 211.081 805.036ZM111.025 820.717C108.914 821.863 109.032 819.846 109.02 854.942C109.007 890.886 108.855 888.665 111.381 889.504C112.296 889.808 112.931 889.808 113.846 889.504C116.177 888.73 116.219 888.509 116.219 876.987V866.632L122.799 866.626C127.199 866.622 130.216 866.442 131.903 866.084C139.316 864.511 145.126 858.663 146.684 851.209C147.389 847.835 147.389 838.979 146.684 835.605C145.286 828.916 140.705 823.714 134.104 821.321C131.636 820.426 131.188 820.388 121.808 820.27C113.498 820.167 111.92 820.232 111.025 820.717ZM116.397 828.224C116.295 828.491 116.253 835.487 116.305 843.77L116.399 858.83H123.611C130.414 858.83 130.928 858.782 132.702 857.974C134.931 856.96 137.586 854.237 138.69 851.832C139.407 850.269 139.475 849.539 139.475 843.407C139.475 836.806 139.459 836.659 138.476 834.646C137.309 832.254 134.891 829.874 132.508 828.774C131.003 828.079 130.056 827.981 123.702 827.866C117.991 827.763 116.545 827.833 116.397 828.224Z" fill="#FF5722"/>
<path d="M612.761 831.876C614.487 830.087 617.336 830.036 619.124 831.761C620.913 833.487 620.964 836.336 619.239 838.124L612.761 831.876ZM392.538 738.125C394.125 736.213 396.962 735.95 398.875 737.538L430.035 763.409C431.947 764.996 432.21 767.833 430.622 769.745C429.035 771.658 426.198 771.921 424.285 770.333L396.588 747.337L373.591 775.035C372.004 776.947 369.167 777.21 367.255 775.622C365.342 774.035 365.079 771.198 366.667 769.285L392.538 738.125ZM619.239 838.124C617.169 840.269 615.071 842.329 612.946 844.304L606.818 837.713C608.822 835.85 610.804 833.905 612.761 831.876L619.239 838.124ZM599.378 855.531C594.52 859.085 589.56 862.245 584.521 865.02L580.179 857.137C584.875 854.551 589.511 851.598 594.064 848.267L599.378 855.531ZM568.481 872.475C562.868 874.622 557.199 876.325 551.506 877.598L549.542 868.815C554.808 867.638 560.059 866.061 565.265 864.069L568.481 872.475ZM533.952 880.17C528.011 880.59 522.085 880.558 516.211 880.09L516.925 871.119C522.353 871.551 527.829 871.58 533.317 871.192L533.952 880.17ZM498.686 877.375C492.94 876.044 487.285 874.293 481.76 872.138L485.03 863.753C490.156 865.753 495.397 867.375 500.716 868.607L498.686 877.375ZM465.763 864.569C460.662 861.706 455.719 858.477 450.967 854.898L456.382 847.71C460.815 851.049 465.421 854.057 470.167 856.72L465.763 864.569ZM437.584 843.381C433.43 839.315 429.482 834.944 425.769 830.28L432.811 824.675C436.294 829.05 439.993 833.146 443.879 836.949L437.584 843.381ZM415.65 815.885C412.614 810.978 409.812 805.825 407.268 800.438L415.406 796.595C417.807 801.678 420.447 806.533 423.303 811.15L415.65 815.885ZM400.635 784.167C398.754 778.747 397.117 773.135 395.743 767.341L404.5 765.264C405.805 770.766 407.358 776.086 409.138 781.217L400.635 784.167ZM392.527 750.135C392.129 747.266 391.792 744.359 391.519 741.416L400.481 740.584C400.741 743.394 401.062 746.165 401.441 748.899L392.527 750.135Z" fill="url(#paint1_linear_10_163)"/>
<path d="M334.721 532.357C336.456 534.136 336.422 536.985 334.643 538.72C332.864 540.456 330.015 540.421 328.279 538.643L334.721 532.357ZM157.278 743.397C156.506 745.759 153.966 747.049 151.603 746.277L113.104 733.705C110.741 732.933 109.452 730.392 110.223 728.03C110.995 725.668 113.535 724.378 115.898 725.149L150.119 736.325L161.295 702.104C162.067 699.741 164.607 698.451 166.97 699.223C169.332 699.995 170.622 702.535 169.85 704.898L157.278 743.397ZM328.279 538.643C326.185 536.497 324.067 534.464 321.929 532.543L327.944 525.849C330.232 527.904 332.492 530.073 334.721 532.357L328.279 538.643ZM308.255 521.911C303.274 518.603 298.216 515.827 293.116 513.553L296.782 505.333C302.35 507.816 307.846 510.836 313.234 514.414L308.255 521.911ZM276.859 507.992C271.211 506.623 265.539 505.815 259.884 505.535L260.33 496.546C266.543 496.854 272.776 497.742 278.979 499.245L276.859 507.992ZM242.714 506.284C237.046 507.056 231.432 508.339 225.914 510.103L223.173 501.531C229.172 499.613 235.297 498.211 241.5 497.366L242.714 506.284ZM209.911 516.698C204.817 519.285 199.854 522.291 195.065 525.687L189.859 518.346C194.996 514.702 200.336 511.466 205.836 508.673L209.911 516.698ZM181.588 536.712C177.393 540.64 173.394 544.895 169.627 549.449L162.692 543.713C166.698 538.869 170.958 534.336 175.436 530.143L181.588 536.712ZM159.329 563.562C156.213 568.416 153.339 573.516 150.735 578.84L142.65 574.887C145.405 569.252 148.451 563.848 151.755 558.7L159.329 563.562ZM143.944 594.974C142.005 600.409 140.337 606.024 138.964 611.8L130.208 609.72C131.656 603.624 133.418 597.693 135.467 591.95L143.944 594.974ZM135.828 629.069C135.101 634.78 134.658 640.618 134.521 646.566L125.523 646.359C125.667 640.1 126.133 633.952 126.9 627.933L135.828 629.069ZM135.003 664.153C135.448 669.903 136.178 675.736 137.213 681.641L128.348 683.194C127.264 677.006 126.497 670.886 126.03 664.847L135.003 664.153ZM141.041 698.803C142.545 704.354 144.322 709.956 146.385 715.597L137.933 718.689C135.782 712.808 133.927 706.96 132.354 701.157L141.041 698.803ZM153.122 731.921C154.352 734.595 155.649 737.276 157.013 739.963L148.987 744.037C147.572 741.248 146.225 738.463 144.946 735.683L153.122 731.921Z" fill="url(#paint2_linear_10_163)"/>
<path fill-rule="evenodd" clip-rule="evenodd" d="M587.72 608.917C587.087 610.96 554.617 765.296 554.764 765.562C554.954 765.906 608.634 800.196 610.031 800.866C610.684 801.179 621.747 801.602 643.671 802.153C661.637 802.604 676.465 802.904 676.622 802.82C676.889 802.676 736.303 656.517 736.903 654.527L737.18 653.609L662.592 630.805L588.003 608.001L587.72 608.917ZM605.332 648.199C605.23 648.519 604.244 652.653 603.139 657.385L601.131 665.989L637.724 677.071C674.128 688.095 674.317 688.156 674.112 688.819C673.697 690.16 667.322 706.338 667.179 706.414C667.097 706.457 651.33 701.887 632.14 696.257C612.95 690.628 597.197 686.041 597.133 686.065C596.99 686.119 593.692 702.886 593.594 704.056L593.524 704.887L626.658 714.893C646.833 720.986 659.755 725.02 659.697 725.208C659.496 725.867 649.187 749.73 649.075 749.796C649.01 749.835 643.88 749.699 637.674 749.493L626.392 749.119L616.863 743.144C611.622 739.858 607.305 737.106 607.27 737.029C607.236 736.952 607.828 733.962 608.587 730.385C609.346 726.808 610.076 723.218 610.208 722.406L610.45 720.931L600.796 717.98L591.143 715.028L591.017 715.992C590.947 716.522 589.491 723.499 587.781 731.496C586.071 739.493 584.733 746.164 584.808 746.321C584.883 746.477 592.898 751.656 602.619 757.829L620.293 769.053L641.434 769.635L662.575 770.217L667.986 756.928C685.069 714.973 700.178 677.751 700.331 677.243C700.498 676.69 698.022 675.9 653.012 662.139C608.003 648.378 605.507 647.648 605.332 648.199Z" fill="#2196F3"/>
<path d="M605.332 648.199C605.23 648.519 604.244 652.653 603.139 657.385L601.131 665.989L637.724 677.071C674.128 688.095 674.317 688.156 674.112 688.819C673.697 690.16 667.322 706.338 667.179 706.414C667.097 706.457 651.33 701.887 632.14 696.257C612.95 690.628 597.197 686.041 597.133 686.065C596.99 686.119 593.692 702.886 593.594 704.056L593.524 704.887L626.658 714.893C646.833 720.986 659.755 725.02 659.697 725.208C659.496 725.867 649.187 749.73 649.075 749.796C649.01 749.835 643.88 749.699 637.674 749.493L626.392 749.119L616.863 743.144C611.622 739.858 607.305 737.106 607.27 737.029C607.236 736.952 607.828 733.962 608.587 730.385C609.346 726.808 610.076 723.218 610.208 722.406L610.45 720.931L600.796 717.98L591.143 715.028L591.017 715.992C590.947 716.522 589.491 723.499 587.781 731.496C586.071 739.493 584.733 746.164 584.808 746.321C584.883 746.477 592.898 751.656 602.619 757.829L620.293 769.053L641.434 769.635L662.575 770.217L667.986 756.928C685.069 714.973 700.178 677.751 700.331 677.243C700.498 676.69 698.022 675.9 653.012 662.139C608.003 648.378 605.507 647.648 605.332 648.199Z" fill="white"/>
<path d="M130.133 59.5494L136.361 41.0096C137.807 36.6597 142.511 34.3316 146.856 35.7958C151.2 37.2519 153.534 41.9457 152.07 46.2912L145.842 64.831C144.898 67.6696 142.556 69.6484 139.842 70.275C138.396 70.6088 136.852 70.5568 135.349 70.053C131.005 68.5968 128.669 63.895 130.133 59.5494ZM40.3348 89.1809C42.4278 91.3183 45.4106 92.0761 48.1248 91.4495C49.5626 91.1175 50.9271 90.3941 52.0592 89.2904C55.3249 86.0775 55.3735 80.8336 52.1606 77.5678L38.4502 63.6226C35.2373 60.3569 29.9871 60.3182 26.7276 63.5212C23.4619 66.7341 23.4133 71.978 26.6262 75.2437L40.3348 89.1809ZM26.7942 111.094L10.6644 107.492C6.2083 106.47 1.74884 109.303 0.77305 113.774C-0.228836 118.243 2.58897 122.672 7.05563 123.666L23.1854 127.268C24.4332 127.55 25.6804 127.534 26.8517 127.264C29.8647 126.568 32.3668 124.212 33.0787 120.993C34.0805 116.525 31.2609 112.087 26.7942 111.094ZM93.2294 81.0618C48.8574 92.0801 24.7018 148.504 59.6216 189.416C64.927 195.628 71.7448 200.282 78.8452 204.318C81.5384 205.849 83.8428 207.98 85.9396 210.355L114.22 203.826L104.553 161.95C94.402 160.771 85.5732 153.45 83.145 142.932C82.1137 138.465 84.8909 134.021 89.358 132.989C93.8251 131.958 98.2696 134.735 99.3009 139.202C100.332 143.669 104.785 146.445 109.244 145.415C113.703 144.386 116.486 139.932 115.457 135.473C114.427 131.013 117.203 126.561 121.67 125.53C126.137 124.498 130.581 127.276 131.613 131.743C134.041 142.26 129.315 152.71 120.708 158.22L130.376 200.096L158.39 193.628C159.503 190.045 161.19 186.516 163.701 183.205C167.999 177.533 171.864 171.425 173.507 164.502C180.987 132.885 168.436 103.91 143.915 88.8785C128.64 79.5062 110.64 76.7614 93.2294 81.0618ZM94.1722 227.845C96.2599 239.836 107.472 247.935 119.33 245.197L143.734 239.563C154.889 236.987 161.842 225.861 159.266 214.706L158.334 210.667L93.5649 225.62C93.7402 226.379 94.0416 227.058 94.1722 227.845ZM192.983 69.0844C190.203 65.4464 185.006 64.7149 181.371 67.5109L167.391 78.1579C163.743 80.9315 163.038 86.1314 165.818 89.7694C167.857 92.4467 171.197 93.5388 174.283 92.8264C175.39 92.5709 176.468 92.0837 177.429 91.3429L191.409 80.6959C195.057 77.9223 195.763 72.7224 192.983 69.0844Z" fill="#FFAE00"/>
<path d="M140.421 258.338C140.884 255.896 139.279 253.542 136.837 253.079C134.396 252.617 132.041 254.221 131.579 256.663L140.421 258.338ZM357.499 366.399C357.443 363.914 355.383 361.945 352.899 362.001L312.409 362.914C309.924 362.97 307.955 365.03 308.011 367.515C308.067 369.999 310.127 371.968 312.612 371.912L348.603 371.1L349.414 407.091C349.47 409.576 351.53 411.545 354.015 411.489C356.499 411.433 358.468 409.373 358.412 406.888L357.499 366.399ZM131.579 256.663C130.986 259.789 130.513 262.904 130.155 266.004L139.096 267.037C139.429 264.152 139.87 261.251 140.421 258.338L131.579 256.663ZM129.368 284.858C129.572 291.223 130.249 297.486 131.362 303.614L140.217 302.006C139.183 296.307 138.553 290.485 138.364 284.57L129.368 284.858ZM136.073 321.869C138.089 327.854 140.526 333.66 143.34 339.249L151.378 335.202C148.752 329.985 146.48 324.571 144.602 318.995L136.073 321.869ZM152.949 355.439C156.524 360.616 160.443 365.536 164.666 370.163L171.314 364.096C167.363 359.767 163.697 355.165 160.355 350.325L152.949 355.439ZM178.258 383.173C183.083 387.204 188.176 390.901 193.493 394.227L198.265 386.596C193.3 383.491 188.541 380.036 184.028 376.266L178.258 383.173ZM210.128 403.071C215.876 405.621 221.809 407.757 227.885 409.44L230.288 400.767C224.648 399.204 219.131 397.219 213.778 394.844L210.128 403.071ZM246.424 413.081C252.645 413.81 258.961 414.06 265.33 413.793L264.952 404.801C259.068 405.047 253.229 404.817 247.471 404.142L246.424 413.081ZM284.098 411.495C290.155 410.258 296.216 408.531 302.245 406.283L299.101 397.85C293.508 399.935 287.896 401.534 282.297 402.677L284.098 411.495ZM319.382 398.405C324.724 395.466 330.008 392.085 335.21 388.244L329.863 381.004C324.975 384.614 320.027 387.778 315.043 390.52L319.382 398.405ZM349.567 376.241C351.818 374.127 354.047 371.917 356.253 369.609L349.747 363.391C347.651 365.583 345.536 367.679 343.405 369.681L349.567 376.241Z" fill="url(#paint3_linear_10_163)"/>
<path d="M349.589 313.861C352.123 297.86 367.112 286.937 383.067 289.464L411.957 294.04L407.369 323.012C404.834 339.013 389.845 349.936 373.89 347.409C357.934 344.882 347.054 329.862 349.589 313.861Z" fill="#0ACF83"/>
<path d="M416.546 265.068C419.08 249.067 434.069 238.144 450.024 240.671C465.98 243.199 476.86 258.219 474.326 274.219C471.791 290.22 456.802 301.143 440.847 298.616C424.892 296.089 414.012 281.069 416.546 265.068Z" fill="#1ABCFE"/>
<path d="M358.766 255.917C356.232 271.917 367.112 286.937 383.067 289.464L411.957 294.04L421.135 236.096L392.245 231.52C376.289 228.993 361.301 239.916 358.766 255.917Z" fill="#A259FF"/>
<path d="M430.312 178.151L421.135 236.096L450.024 240.671C465.98 243.199 480.969 232.276 483.503 216.275C486.038 200.274 475.158 185.254 459.202 182.727L430.312 178.151Z" fill="#FF7262"/>
<path d="M367.944 197.972C365.409 213.973 376.289 228.993 392.245 231.52L421.135 236.096L430.312 178.151L401.422 173.576C385.467 171.049 370.478 181.971 367.944 197.972Z" fill="#F24E1E"/>
<path d="M480.898 148.651C479.876 150.916 480.885 153.581 483.151 154.602C485.416 155.624 488.081 154.615 489.102 152.349L480.898 148.651ZM703.323 238.173C704.247 240.48 706.866 241.602 709.173 240.677L746.77 225.619C749.077 224.695 750.198 222.075 749.274 219.768C748.35 217.461 745.73 216.34 743.423 217.264L710.004 230.65L696.619 197.23C695.695 194.923 693.075 193.802 690.768 194.726C688.461 195.65 687.34 198.27 688.264 200.577L703.323 238.173ZM489.102 152.349C490.239 149.828 491.486 147.408 492.835 145.089L485.056 140.563C483.55 143.151 482.161 145.847 480.898 148.651L489.102 152.349ZM502.421 132.006C506.078 127.982 510.133 124.367 514.526 121.148L509.208 113.888C504.351 117.446 499.842 121.463 495.761 125.953L502.421 132.006ZM528.568 112.719C533.439 110.345 538.572 108.339 543.911 106.692L541.257 98.0918C535.506 99.8664 529.938 102.039 524.626 104.628L528.568 112.719ZM560.076 102.888C565.49 101.981 571.03 101.395 576.641 101.122L576.204 92.1327C570.256 92.4219 564.365 93.0438 558.588 94.0121L560.076 102.888ZM593.361 101.218C598.913 101.545 604.477 102.161 610 103.057L611.441 94.1727C605.619 93.2288 599.751 92.5789 593.89 92.2339L593.361 101.218ZM626.377 106.567C631.795 108.019 637.116 109.742 642.288 111.726L645.511 103.323C640.04 101.225 634.42 99.4051 628.706 97.8739L626.377 106.567ZM657.524 118.561C662.51 121.151 667.275 124.005 671.764 127.109L676.883 119.707C672.067 116.376 666.976 113.329 661.671 110.574L657.524 118.561ZM684.676 137.467C688.745 141.265 692.44 145.322 695.701 149.621L702.871 144.181C699.28 139.447 695.236 135.012 690.817 130.888L684.676 137.467ZM704.249 163.481C706.6 168.323 708.447 173.406 709.729 178.719L718.478 176.609C717.04 170.647 714.969 164.955 712.346 159.551L704.249 163.481ZM711.803 194.765C711.92 199.996 711.52 205.43 710.541 211.061L719.409 212.601C720.483 206.414 720.932 200.396 720.801 194.564L711.803 194.765ZM706.398 226.904C705.505 229.476 704.495 232.085 703.363 234.729L711.637 238.271C712.849 235.438 713.936 232.633 714.9 229.855L706.398 226.904Z" fill="url(#paint4_linear_10_163)"/>
<path fill-rule="evenodd" clip-rule="evenodd" d="M614.738 250.735C613.957 250.945 613.285 251.117 613.244 251.116C613.203 251.115 612.727 251.663 612.184 252.333C611.377 253.333 611.164 253.961 611.005 255.815C610.899 257.059 610.484 291.152 610.084 331.577C609.301 410.668 609.244 406.701 611.172 408.374C612.493 409.521 670.899 433.875 672.707 434.034C674.515 434.192 736.263 420.349 737.763 419.45C739.952 418.137 739.207 422.033 752.17 344.008C758.796 304.128 764.306 270.502 764.415 269.284C764.645 266.705 763.99 265.001 762.344 263.895C761.377 263.245 756.738 262.796 688.735 256.777C626.165 251.24 615.962 250.406 614.738 250.735ZM636.173 285.051C636.152 285.295 636.006 298.542 635.849 314.486C635.692 330.431 635.54 343.751 635.513 344.085C635.464 344.66 637.346 344.857 670.205 347.732C689.314 349.404 704.942 350.848 704.934 350.94C704.834 352.078 701.052 374.745 700.947 374.834C700.868 374.901 695.699 375.882 689.462 377.013L678.121 379.069L668.509 375.539C663.222 373.596 658.254 371.769 657.469 371.477L656.042 370.947L656.709 363.325L657.376 355.703L646.364 354.739L635.352 353.776L635.42 355.093C635.456 355.818 635.405 362.698 635.304 370.384C635.204 378.069 635.14 384.57 635.162 384.832C635.198 385.275 674.245 401.931 675.506 402.041C675.79 402.066 685.49 399.943 697.063 397.324C714.4 393.401 718.129 392.451 718.249 391.927C718.41 391.224 727.898 334.108 727.946 333.551C727.967 333.319 716.126 332.165 692.733 330.119L657.489 327.035L657.398 325.891C657.349 325.261 657.251 320.964 657.18 316.341C657.109 311.719 657.015 307.501 656.97 306.968L656.889 305.999L694.204 309.264L731.519 312.528L731.594 311.748C731.636 311.319 732.294 307.324 733.057 302.871C733.82 298.417 734.478 294.422 734.52 293.993L734.595 293.213L685.404 288.909C645.625 285.429 636.205 284.691 636.173 285.051Z" fill="#FC490B"/>
<path d="M636.173 285.051C636.152 285.295 636.006 298.542 635.849 314.486C635.692 330.431 635.54 343.751 635.513 344.085C635.464 344.66 637.346 344.857 670.205 347.732C689.314 349.404 704.942 350.848 704.934 350.94C704.834 352.078 701.052 374.745 700.947 374.834C700.868 374.901 695.699 375.882 689.462 377.013L678.121 379.069L668.509 375.539C663.222 373.596 658.254 371.769 657.469 371.477L656.042 370.947L656.709 363.325L657.376 355.703L646.364 354.739L635.352 353.776L635.42 355.093C635.456 355.818 635.405 362.698 635.304 370.384C635.204 378.069 635.14 384.57 635.162 384.832C635.198 385.275 674.245 401.931 675.506 402.041C675.79 402.066 685.49 399.943 697.063 397.324C714.4 393.401 718.129 392.451 718.249 391.927C718.41 391.224 727.898 334.108 727.946 333.551C727.967 333.319 716.126 332.165 692.733 330.119L657.489 327.035L657.398 325.891C657.349 325.261 657.251 320.964 657.18 316.341C657.109 311.719 657.015 307.501 656.97 306.968L656.889 305.999L694.204 309.264L731.519 312.528L731.594 311.748C731.636 311.319 732.294 307.324 733.057 302.871C733.82 298.417 734.478 294.422 734.52 293.993L734.595 293.213L685.404 288.909C645.625 285.429 636.205 284.691 636.173 285.051Z" fill="white"/>
<path fill-rule="evenodd" clip-rule="evenodd" d="M347.876 562.44C306.711 567.669 277.55 606.575 282.642 649.478C286.712 683.772 311.48 710.094 342.279 716.611C346.069 716.914 347.134 714.3 346.89 712.246C346.677 710.447 345.823 704.298 345.061 697.874C324.901 705.13 318.943 691.804 318.943 691.804C314.547 683.235 309.342 681.551 309.342 681.551C302 677.659 309.272 676.735 309.272 676.735C316.851 676.294 321.68 683.243 321.68 683.243C329.737 694.214 340.064 689.513 344.134 686.91C344.155 681.822 345.716 678.103 347.583 675.911C330.853 676.21 312.683 671.739 309.146 641.938C308.14 633.461 310.273 626.149 314.317 620.16C313.349 618.328 309.815 610.691 312.618 599.514C312.618 599.514 318.66 596.66 334.021 604.879C339.888 602.41 346.043 600.751 352.328 599.945C358.614 599.147 365.128 599.233 371.243 600.151C384.228 588.332 390.758 589.589 390.758 589.589C396.091 599.733 394.446 608.027 393.936 610.047C399.384 614.831 403.041 621.406 404.047 629.884C407.585 659.684 390.985 668.441 374.574 672.483C377.576 674.578 380.465 678.904 381.334 686.226C382.569 696.63 383.438 704.996 383.743 707.563C383.987 709.619 385.633 711.888 389.238 710.648C417.598 696.613 435.475 664.877 431.404 630.582C426.434 587.664 388.918 557.227 347.876 562.44Z" fill="#24292F"/>
<defs>
<linearGradient id="paint0_linear_10_163" x1="696" y1="394" x2="583.5" y2="602" gradientUnits="userSpaceOnUse">
<stop stop-color="#FC490B"/>
<stop offset="1" stop-color="#2196F3"/>
</linearGradient>
<linearGradient id="paint1_linear_10_163" x1="559.987" y1="756.5" x2="403.122" y2="756.5" gradientUnits="userSpaceOnUse">
<stop stop-color="#2196F3"/>
<stop offset="1" stop-color="#24292F"/>
</linearGradient>
<linearGradient id="paint2_linear_10_163" x1="288.986" y1="472.5" x2="132.122" y2="472.5" gradientUnits="userSpaceOnUse">
<stop stop-color="#24292F"/>
<stop offset="1" stop-color="#FF5722"/>
</linearGradient>
<linearGradient id="paint3_linear_10_163" x1="167.278" y1="220.017" x2="363.669" y2="220.017" gradientUnits="userSpaceOnUse">
<stop stop-color="#FFAE00"/>
<stop offset="1" stop-color="#0ACF83"/>
</linearGradient>
<linearGradient id="paint4_linear_10_163" x1="494.056" y1="173.686" x2="684.574" y2="175.674" gradientUnits="userSpaceOnUse">
<stop stop-color="#FF7262"/>
<stop offset="1" stop-color="#FC490B"/>
</linearGradient>
</defs>
</svg>
